<?xml version="1.0" encoding="UTF-8" standalone="no"?>
<svg width="246px" height="245px" viewBox="0 0 246 245" version="1.1" xmlns="http://www.w3.org/2000/svg" xmlns:xlink="http://www.w3.org/1999/xlink">
    <!-- Generator: Sketch 39.1 (31720) - http://www.bohemiancoding.com/sketch -->
    <title>Group</title>
    <desc>Created with Sketch.</desc>
    <defs></defs>
    <g id="Page" stroke="none" stroke-width="1" fill="none" fill-rule="evenodd">
        <g id="Artboard" transform="translate(-598.000000, -40.000000)">
            <g id="Group" transform="translate(598.000000, 39.523438)">
                <g transform="translate(32.714417, 27.262014)" id="Shape" fill="#008B8B">
                    <polygon points="13.295419 15.898564 38.7410041 11.4120154 36.8700511 21.4148379 21.2333387 24.171417 15.6866871 53.6813789 29.1385438 51.3088048 27.2660329 61.3466784 13.8149551 63.7184736 11.7695252 74.5142312 27.4039008 71.7568732 25.5329477 81.7596957 0.0865837295 86.2462443"></polygon>
                    <polygon points="46.0219871 10.1282082 55.8331965 8.39823872 57.4626861 47.5636272 65.123312 6.76018112 74.2070152 5.1579536 60.9981798 75.5064128 51.1869704 77.2363823 49.6618554 39.3009001 42.242693 78.8136845 32.8131518 80.4758885"></polygon>
                    <path d="M91.1594703,11.8415869 L81.6956568,62.1844011 L85.9944869,61.4265171 C88.8367466,60.9248961 90.558927,59.0850996 91.1594703,55.904012 L98.8208751,15.1356171 C99.4214184,11.9334988 98.301339,10.5820818 95.4590793,11.0837029 L91.1594703,11.8415869 Z M83.2215506,3.56873396 L98.3356113,0.904066808 C107.048551,-0.61014335 110.482007,3.55782916 108.632863,13.4056476 L100.97068,54.1740425 C99.1223151,63.9992724 93.6325244,69.7289688 84.5028653,71.361574 L70.0119364,73.9164142 L83.2215506,3.56873396 Z"></path>
                </g>
                <g transform="translate(97.364336, 123.847436)" id="Shape" fill="#008B8B">
                    <polygon points="13.8879394 15.2428737 39.1543742 10.7874816 37.2958837 20.7194228 21.7705561 23.457308 16.2636293 52.7577419 29.6189005 50.4030828 27.7604101 60.3692962 14.4043599 62.7239553 12.3737293 73.4441582 27.898278 70.7062731 26.0397875 80.6382143 0.772573897 85.0936063"></polygon>
                    <polygon points="46.3833256 9.51278775 56.1252117 7.79528085 57.7422385 46.6833757 65.3506772 6.16890698 74.3689515 4.57836318 61.2543649 74.4290958 51.5124789 76.1466027 49.9974898 38.4798462 42.6312936 77.7130002 33.2679601 79.3642993"></polygon>
                    <path d="M91.2028558,11.2144048 L81.8052501,61.201255 L86.0737026,60.4488234 C88.8957105,59.950318 90.6046493,58.1237631 91.2028558,54.9660429 L98.8097367,14.4858465 C99.4063853,11.3047589 98.2940951,9.9642467 95.4705294,10.4611943 L91.2028558,11.2144048 Z M83.3202391,2.99997046 L98.3275885,0.353997254 C106.978994,-1.14852918 110.387525,2.98906565 108.551623,12.7675607 L100.944742,53.248536 C99.1065032,63.0036636 93.6579949,68.6920776 84.5937647,70.313778 L70.2048736,72.8507031 L83.3202391,2.99997046 Z"></path>
                </g>
                <polygon id="Shape" fill="#008B8B" points="107.936592 110.854652 104.26323 111.502709 105.164434 106.684343 117.254748 104.552453 116.354323 109.370819 112.680182 110.018097 108.146899 134.149654 103.403308 134.985429"></polygon>
                <g transform="translate(115.279374, 102.037824)" id="Shape" fill="#008B8B">
                    <path d="M10.6566897,5.51672171 C10.5499784,5.51672171 10.4339201,5.52762652 10.3085149,5.54943613 C9.32474563,5.72235519 8.76159031,6.34081345 8.56218815,7.44375665 L5.31722955,24.6530978 C5.22298087,25.1500454 5.24868506,25.5169142 5.38811078,25.6859387 C5.41926737,25.7233266 5.51507388,25.8393849 5.85234394,25.8393849 L5.85312285,25.8393849 C5.96217091,25.8393849 6.08134486,25.8277012 6.21142361,25.8043337 C7.18974046,25.6314147 7.76691625,25.0106197 7.9764443,23.9053397 L11.2198451,6.69755638 C11.3094203,6.20917687 11.2813793,5.84542371 11.1403958,5.67717814 C11.1076814,5.63745349 11.0072014,5.51672171 10.6566897,5.51672171 M4.05382992,30.7340848 C2.77718874,30.7340848 1.81990259,30.3609847 1.2107913,29.6280259 C0.435771185,28.6933283 0.245716001,27.2453259 0.628942028,25.2006748 L3.8723428,7.99289151 C4.6411316,3.89813699 7.01370574,1.47181773 10.9246364,0.782478225 C11.4862339,0.683556059 12.0096646,0.632926604 12.4793501,0.632926604 C13.759107,0.632926604 14.7179509,1.00524783 15.3278411,1.74054329 C16.1005245,2.67212526 16.2905797,4.11467527 15.9081326,6.14997935 L12.6639529,23.3577627 C11.895943,27.4517383 9.51869539,29.88351 5.59919667,30.5853121 C5.03993592,30.6842343 4.52039982,30.7340848 4.05382992,30.7340848"></path>
                </g>
                <path d="M185.323667,222.577988 C167.172618,234.040497 145.688593,240.684639 122.680232,240.684639 C57.7989751,240.684639 5.01426332,187.900706 5.01426332,123.021007 C5.01426332,58.1389714 57.7989751,5.35425958 122.680232,5.35425958 C187.559931,5.35425958 240.343864,58.1389714 240.343864,123.021007 C240.343864,147.901879 232.57419,170.999036 219.343545,190.027922 L225.723635,188.900833 C237.932344,169.872726 245.017352,147.258496 245.017352,123.021007 C245.017352,55.5623216 190.13736,0.680771439 122.680232,0.680771439 C55.2223253,0.680771439 0.340775177,55.5623216 0.340775177,123.021007 C0.340775177,190.478135 55.2223253,245.358127 122.680232,245.358127 C145.070914,245.358127 166.073569,239.30596 184.145948,228.760234 L185.323667,222.577988 Z" id="Shape" fill="#008B8B"></path>
                <g transform="translate(203.073650, 189.939564)" id="Shape" fill="#AFF2D5">
                    <polygon points="5.97912966 3.50186068 10.9796229 2.62065371 11.9840814 21.2090063 20.2226539 0.990714265 25.296092 0.096092154 19.4118765 31.4372116 14.4600131 32.3091957 16.9384601 19.1212752 11.6579259 32.8030405 8.06602229 33.4369059 7.64763763 20.3521142 5.09037667 33.9617732 0.0949141298 34.8421417"></polygon>
                </g>
                <path d="M188.609799,48.7943903 C188.083252,50.3872708 187.545801,51.9762568 187.03717,53.5738108 C185.62344,58.00973 184.222172,62.447207 182.819347,66.8870207 C182.781959,67.0015211 182.769496,67.1245897 182.726656,67.3520328 C188.197753,65.7466896 193.594074,64.1623771 199.141504,62.5352243 C191.366378,80.8404984 183.637986,99.032051 175.909595,117.223604 C175.867533,117.211141 175.821577,117.198678 175.778737,117.186995 C178.391996,103.92753 181.004476,90.668844 183.64266,77.2761848 C178.142743,78.9524092 172.74097,80.5990349 167.282336,82.2635756 C167.285451,82.0992246 167.272989,81.9979657 167.294019,81.903717 C168.551188,75.9722816 169.813808,70.0439619 171.067861,64.1133055 C171.695666,61.1464194 172.32425,58.1818701 172.918562,55.2095317 C173.317367,53.2232992 173.658531,51.2261619 174.0254,49.2321403 C178.888164,49.0864833 183.747813,48.9408262 188.609799,48.7943903" id="Shape" fill="#008B8B"></path>
                <path d="M71.6752308,134.742408 C71.2039875,136.352424 70.7210604,137.958546 70.2646163,139.572458 C69.0035535,144.053554 67.7533954,148.536208 66.4985638,153.02042 C66.4666283,153.135699 66.4580603,153.259547 66.4222302,153.48699 C71.8364662,151.698601 77.1759264,149.933581 82.6657171,148.120267 C75.5121646,166.677131 68.4030102,185.119494 61.292298,203.562636 C61.2478999,203.550952 61.2027228,203.540048 61.1583247,203.529922 C63.3244865,190.18945 65.4890904,176.850536 67.6731672,163.376869 C62.2301113,165.236139 56.8883144,167.064252 51.4888777,168.911058 C51.4873199,168.748265 51.4725205,168.647006 51.4888777,168.5512 C52.5450861,162.581598 53.6075257,156.614332 54.6621762,150.643172 C55.1887225,147.658371 55.7160478,144.67357 56.2106586,141.683316 C56.5416973,139.684621 56.8150964,137.677358 57.1157575,135.672432 C61.9691749,135.362424 66.8225923,135.051637 71.6752308,134.742408" id="Shape" fill="#008B8B"></path>
                <g transform="translate(184.602782, 186.939526)" id="Shape" fill="#008B8B">
                    <polygon points="8.70028972 9.79156131 19.754647 7.84271676 18.8487692 12.6828926 12.559812 13.7920672 10.496467 24.8160468 15.9075873 23.8610974 14.9845734 28.7191883 9.57578983 29.6725799 8.00082433 38.0661646 3.2323086 38.9066135"></polygon>
                    <polygon points="24.2070792 7.46930506 28.8525264 6.65066572 29.7856662 23.9192044 37.4392819 5.13645556 42.1524947 4.30535359 36.6860714 33.4211847 32.0858012 34.231256 34.3882731 21.9797068 29.4826684 34.6900367 26.1457978 35.2788962 25.7571194 23.1231536 23.3814296 35.7664968 18.7406559 36.5843573"></polygon>
                </g>
            </g>
        </g>
    </g>
</svg>